<svg width="192" height="192" viewBox="0 0 192 192" fill="none" xmlns="http://www.w3.org/2000/svg">
<rect width="192" height="192" fill="#EEEEEE"/>
<path d="M45.8556 121.057C42.8309 116.671 41.3846 111.424 41.745 106.144V84.593C41.3635 79.2742 42.7879 73.9809 45.7968 69.536C48.5176 66.107 53.1664 64.4021 59.7432 64.4212C66.3199 64.4404 70.773 65.9441 73.1023 68.9326C75.9425 72.6359 77.3283 77.2147 77.0072 81.8344V86.8918H64.8519V81.4034C64.8355 79.9593 64.7079 78.5185 64.4702 77.0932C64.3233 76.0614 63.8392 75.1038 63.0903 74.3634C62.628 73.9754 62.0912 73.6815 61.5115 73.499C60.9317 73.3164 60.3205 73.2489 59.7138 73.3002C58.8424 73.173 57.9521 73.3116 57.164 73.6972C56.376 74.0828 55.7285 74.6967 55.3097 75.4553C54.5377 77.4733 54.1979 79.6251 54.3114 81.777V109.132C54.1775 111.299 54.5699 113.465 55.4565 115.454C55.8801 116.172 56.5087 116.752 57.2651 117.125C58.0214 117.498 58.8725 117.646 59.7138 117.552C60.5405 117.666 61.3829 117.522 62.1211 117.14C62.8592 116.758 63.4553 116.158 63.8243 115.425C64.5345 113.404 64.8434 111.268 64.7345 109.132V103.385H76.8898V108.357C77.2476 113.044 75.9749 117.713 73.2784 121.603C70.6947 124.764 66.2319 126.316 59.89 126.316C53.5481 126.316 48.5861 124.592 45.8556 121.057Z" fill="#111111"/>
<path d="M92.801 65.6842H106.867L118.737 125.053H107.045L104.938 111.935H95.086L92.712 124.968H80.842L92.801 65.6842ZM103.632 104.472L99.8933 80.6111L96.1839 104.472H103.632Z" fill="#111111"/>
<path d="M127.018 74.6305H117.474V65.6842H149.053V74.6305H139.626V125.053H126.989L127.018 74.6305Z" fill="#111111"/>
</svg>
